<svg id="Layer_1" data-name="Layer 1" xmlns="http://www.w3.org/2000/svg" width="64" height="64" viewBox="0 0 64 64"><defs><style>.cls-1{fill:#111;}.cls-2{fill:none;stroke:#111;stroke-linecap:square;stroke-miterlimit:10;stroke-width:2px;}</style></defs><title>chat</title><polygon class="cls-1" points="50 13 62 13.13 62.88 13.14 62.87 14 62.54 44 62.53 44.54 62 44.54 54 44.45 54.45 44 54.34 54 54.33 54.66 53.8 54.27 39.91 44.12 40 44.15 26.59 44 40 43.85 40.05 43.85 40.09 43.88 54.2 53.73 53.66 54 53.55 44 53.55 43.56 54 43.55 62 43.46 61.46 44 61.13 14 62 14.87 50 15 49 15.01 49 12.99 50 13"/><polygon class="cls-2" points="50 4 2 4 2 38 12 38 12 52 28 38 50 38 50 4"/></svg>