<svg id="Layer_1" data-name="Layer 1" xmlns="http://www.w3.org/2000/svg" width="48" height="48" viewBox="0 0 48 48"><title>darkMode</title><path d="M44.4,21.77,26.23,3.6a3.16,3.16,0,0,0-4.46,0L3.6,21.77a3.16,3.16,0,0,0,0,4.46L21.77,44.4a3.16,3.16,0,0,0,4.46,0L44.4,26.23A3.16,3.16,0,0,0,44.4,21.77ZM24,36a11.92,11.92,0,0,1-5-1.1,12,12,0,0,0,0-21.8A12,12,0,1,1,24,36Z"/><path d="M36.85,8H11.15A3.15,3.15,0,0,0,8,11.15v25.7A3.15,3.15,0,0,0,11.15,40h25.7A3.15,3.15,0,0,0,40,36.85V11.15A3.15,3.15,0,0,0,36.85,8ZM24,36a11.92,11.92,0,0,1-5-1.1,12,12,0,0,0,0-21.8A12,12,0,1,1,24,36Z"/></svg>