<svg id="Layer_1" data-name="Layer 1" xmlns="http://www.w3.org/2000/svg" width="64" height="64" viewBox="0 0 64 64"><defs><style>.cls-1,.cls-2,.cls-3,.cls-4{fill:#fff;}.cls-1,.cls-3,.cls-5{stroke:#fff;}.cls-1,.cls-2,.cls-3,.cls-4,.cls-5{stroke-miterlimit:10;stroke-width:2px;}.cls-2,.cls-4{stroke:#111;}.cls-3,.cls-4,.cls-5{stroke-linecap:square;}.cls-5{fill:none;}</style></defs><title>pencil</title><line class="cls-1" x1="5.81" y1="44" x2="19.81" y2="58"/><line class="cls-2" x1="12.81" y1="51" x2="42.81" y2="21"/><line class="cls-3" x1="42" y1="7.79" x2="55.48" y2="21.26"/><line class="cls-4" x1="35.81" y1="14" x2="49.81" y2="28"/><path class="cls-5" d="M18.66,58.14,3.81,60,5.67,45.15a3.35,3.35,0,0,1,1-2L45,4.8a4,4,0,0,1,5.7,0L59,13.1a4,4,0,0,1,0,5.7L20.63,57.18A3.35,3.35,0,0,1,18.66,58.14Z"/><rect class="cls-1" x="5.5" y="23.68" width="51.2" height="18.81" rx="4.06" transform="translate(-14.28 31.6) rotate(-44.89)"/></svg>