<svg id="Layer_1" data-name="Layer 1" xmlns="http://www.w3.org/2000/svg" width="44.51" height="44.51" viewBox="0 0 44.51 44.51"><defs><style>.cls-1{fill:#fff;}</style></defs><title>project</title><path class="cls-1" d="M39.57,1.74H6.67a4.91,4.91,0,0,0-4.9,5l0,34.62a4.93,4.93,0,0,0,4.93,4.95h32.9a6.7,6.7,0,0,0,6.69-6.69V8.43A6.7,6.7,0,0,0,39.57,1.74Zm0,29.68H33a1.77,1.77,0,0,0-1.72,1.47,7.42,7.42,0,0,1-14.54,0A1.77,1.77,0,0,0,15,31.42H8.4a1.73,1.73,0,0,1-1.73-1.74V8.43A1.73,1.73,0,0,1,8.4,6.69H39.57a1.74,1.74,0,0,1,1.74,1.74V29.68A1.74,1.74,0,0,1,39.57,31.42Z" transform="translate(-1.74 -1.74)"/></svg>