<svg id="Layer_1" data-name="Layer 1" xmlns="http://www.w3.org/2000/svg" viewBox="0 0 500 500"><title>geometricPolygon</title><path d="M232.3,260.22V239.78L250,229.56l17.7,10.22v20.44L250,270.44l-17.7-10.22m-.05,0L250,270.49l17.75-10.24v-20.5L250,229.51l-17.75,10.24v20.5Z"/><path d="M230,259.74l1.55-22.16,20-9.74L270,240.26l-1.55,22.16-20,9.74L230,259.74m-.05,0,18.47,12.46,20-9.76L270,240.24l-18.47-12.46-20,9.76L230,259.76Z"/><path d="M227.61,259.05,231,235.13l22.39-9,19,14.86L269,264.87l-22.39,9-19-14.86m-.06,0L246.63,274l22.45-9.06,3.37-24L253.37,226l-22.45,9.06-3.37,24Z"/><path d="M225,258.11l5.46-25.67,25-8.11L275,241.89l-5.46,25.67-25,8.11L225,258.11m-.07,0,19.56,17.61,25-8.13L275,241.87l-19.56-17.61-25,8.13L225,258.13Z"/><path d="M222.32,256.9l7.86-27.42,27.68-6.9,19.82,20.52-7.86,27.42-27.68,6.9L222.32,256.9m-.07,0,19.87,20.58,27.75-6.92,7.88-27.5L257.88,222.5l-27.75,6.92-7.88,27.5Z"/><path d="M219.46,255.38l10.61-29.13,30.54-5.39,19.93,23.76-10.61,29.13-30.54,5.39-19.93-23.76m-.08,0,20,23.82,30.61-5.4,10.64-29.22-20-23.82L230,226.18,219.38,255.4Z"/><path d="M216.48,253.52l13.71-30.79,33.52-3.52,19.81,27.27-13.71,30.79-33.52,3.52-19.81-27.27m-.09,0,19.86,27.34,33.61-3.53,13.75-30.87-19.86-27.34-33.61,3.53-13.75,30.87Z"/><path d="M213.39,251.28l17.2-32.35,36.61-1.28,19.41,31.07-17.2,32.35-36.61,1.28-19.41-31.07m-.1,0,19.46,31.15,36.72-1.28,17.24-32.43-19.46-31.15-36.72,1.28-17.24,32.43Z"/><path d="M210.2,248.61l21.1-33.77,39.8,1.39,18.7,35.16-21.1,33.77-39.8-1.39-18.7-35.16m-.1,0,18.74,35.25,39.9,1.39,21.16-33.86-18.74-35.25-39.9-1.39L210.1,248.61Z"/><path d="M207,245.48l25.44-35L275.44,215l17.61,39.54-25.44,35L224.56,285,207,245.48m-.11,0,17.65,39.65,43.16,4.54,25.51-35.11-17.65-39.65-43.16-4.54-25.51,35.11Z"/><path d="M203.67,241.83l30.24-36L280.24,214l16.09,44.21-30.24,36L219.76,286l-16.09-44.21m-.13,0,16.14,44.33,46.45,8.19,30.33-36.14-16.14-44.33-46.45-8.19-30.33,36.14Z"/><path d="M200.38,237.63l35.52-36.79,49.63,12.37,14.09,49.16L264.1,299.16l-49.63-12.37-14.09-49.16m-.13,0,14.13,49.28,49.75,12.41,35.62-36.89-14.13-49.28-49.75-12.41L200.25,237.6Z"/><path d="M197.13,232.82l41.31-37.19,52.87,17.17,11.56,54.38-41.31,37.19L208.69,287.2l-11.56-54.38m-.14,0,11.59,54.51,53,17.23L303,267.22l-11.59-54.51-53-17.23L197,232.78Z"/><path d="M194,227.37l47.61-37.2,56,22.63L306,272.63l-47.61,37.2-56-22.63L194,227.37m-.15-.06,8.43,60L258.43,310l47.74-37.3-8.43-60L241.57,190l-47.74,37.3Z"/><path d="M191,221.21l54.45-36.73,59,28.79L309,278.79l-54.45,36.73-59-28.79L191,221.21m-.15-.08,4.59,65.69,59.18,28.87,54.59-36.82-4.59-65.69-59.18-28.87-54.59,36.82Z"/><path d="M188.18,214.31,250,178.61l61.82,35.7v71.38L250,321.39l-61.82-35.7V214.31m-.17-.1v71.58l62,35.78,62-35.78V214.21l-62-35.78-62,35.78Z"/><path d="M185.67,206.61l69.74-34L319.74,216l-5.41,77.41-69.74,34L180.26,284l5.41-77.41m-.17-.11-5.42,77.6,64.49,43.51L314.5,293.5l5.42-77.6-64.49-43.51L185.5,206.5Z"/><path d="M183.54,198.07l78.2-31.59,66.46,51.93-11.74,83.52-78.2,31.59L171.8,281.59l11.74-83.52m-.18-.13-11.77,83.74,66.64,52.06,78.41-31.68,11.77-83.74-66.64-52.06-78.41,31.68Z"/><path d="M181.87,188.66l87.19-28.33,68.13,61.34-19.06,89.67-87.19,28.33-68.13-61.34,19.06-89.67m-.18-.16-19.11,89.9,68.31,61.51,87.42-28.41,19.11-89.9-68.31-61.51L181.69,188.5Z"/><path d="M180.78,178.32l96.69-24.11,69.22,71.68-27.47,95.79-96.69,24.11-69.22-71.68,27.47-95.79m-.18-.19-27.54,96L222.46,346l96.94-24.17,27.54-96L277.54,154,180.6,178.13Z"/><path d="M180.38,167,287,148.22l69.63,83L319.62,333,213,351.78l-69.63-83,37-101.78m-.18-.22L143.05,268.86l69.81,83.19L319.8,333.19,357,231.14,287.14,148,180.2,166.81Z"/><path d="M180.8,154.75l117.09-12.3,69.2,95.24L319.2,345.25l-117.09,12.3-69.2-95.24L180.8,154.75m-.18-.25-48,107.84L202,357.84,319.38,345.5l48-107.84L298,142.16,180.62,154.5Z"/><path d="M182.19,141.48,310.08,137l67.81,108.52-60.08,113L189.92,363,122.11,254.47l60.08-113m-.18-.29L121.77,254.48l68,108.81L318,358.81l60.24-113.29-68-108.81L182,141.19Z"/><path d="M184.7,127.19l139,4.85L389,254.85l-73.71,118-139-4.85L111,245.15l73.71-118m-.17-.33L110.62,245.13,176.1,368.27l139.37,4.87,73.91-118.27L323.9,131.73l-139.37-4.87Z"/><path d="M188.51,111.88l150.36,15.8L400.36,265.8,311.49,388.12l-150.36-15.8L99.64,234.2l88.87-122.32m-.17-.36L99.24,234.15,160.9,372.64l150.76,15.84,89.1-122.63L339.1,127.36,188.34,111.52Z"/><path d="M193.79,95.57l161.84,28.54,56.21,154.43L306.21,404.43,144.37,375.89,88.16,221.46,193.79,95.57m-.14-.4L87.73,221.39l56.36,154.83,162.26,28.61L412.27,278.61,355.91,123.78,193.65,95.17Z"/><path d="M200.76,78.29l173.33,43.22,49.23,171.7L299.24,421.71,125.91,378.49,76.68,206.79,200.76,78.29m-.13-.45L76.22,206.67l49.37,172.16,173.78,43.33L423.78,293.33,374.41,121.17,200.63,77.84Z"/><path d="M209.63,60.08l184.66,60L434.66,310,290.37,439.92l-184.66-60L65.34,190,209.63,60.08m-.1-.5L64.86,189.84l40.47,190.42,185.14,60.16L435.14,310.16,394.67,119.74,209.53,59.58Z"/><path d="M220.63,41l195.68,79.06,29.37,209L279.37,459,83.69,379.93l-29.37-209L220.63,41m-.08-.55L53.81,170.73,83.26,380.27l196.19,79.27L446.19,329.27,416.74,119.73,220.55,40.46Z"/><path d="M234,21.16,440.18,121.72l16,228.84L266,478.84,59.82,378.28l-16-228.84L234,21.16m0-.6L43.28,149.17l16,229.44L266,479.44,456.72,350.83l-16-229.44L234,20.56Z"/><path d="M250,.66,465.94,125.33V374.67L250,499.34,34.06,374.67V125.33L250,.66M250,0,33.49,125V375L250,500,466.51,375V125L250,0Z"/></svg>