<svg id="Layer_1" data-name="Layer 1" xmlns="http://www.w3.org/2000/svg" xmlns:xlink="http://www.w3.org/1999/xlink" viewBox="0 0 1920 1080"><defs><style>.cls-1{fill:url(#linear-gradient);}</style><linearGradient id="linear-gradient" x1="198.44" y1="540" x2="1721.56" y2="540" gradientUnits="userSpaceOnUse"><stop offset="0" stop-color="#d1be8b"/><stop offset="0.5" stop-color="#fff"/><stop offset="1" stop-color="#d1be8b"/></linearGradient></defs><title>header</title><path class="cls-1" d="M1403.75,112.11l276.76,40,30.76,138.1-43.38,164.05-.68,2.55.68,2.56,43.32,163.85L1667.9,787.72l-.56,2.13.38,2.16,30.39,171.43-293-39.35-1.4-.19-1.4.21-294.35,43.78L813.57,924.11l-1.47-.22-1.48.22L516.25,967.89l-276.76-40-30.76-138.1,43.38-164,.68-2.55-.68-2.56L208.79,456.81,252.11,293l.56-2.13-.38-2.17-30.4-172.1,293,39.35,1.4.19,1.4-.21,294.35-43.78,294.35,43.78,1.47.22,1.48-.22,294.37-43.78m0-10.11L1107.9,146,812.08,102,516.26,146l-306.6-41.17L242.44,290.4l-44,166.41,44,166.4-44,166.39,32.79,147.23,285,41.17L812.1,934l295.82,44,295.82-44,306.6,41.17-32.77-184.9,44-167.08-44-166.4,44-166.39-32.79-147.23-285-41.17Z"/></svg>